<?xml version="1.0" standalone="no"?>
<!DOCTYPE svg PUBLIC "-//W3C//DTD SVG 20010904//EN"
 "http://www.w3.org/TR/2001/REC-SVG-20010904/DTD/svg10.dtd">
<svg version="1.0" xmlns="http://www.w3.org/2000/svg"
 width="240.000000pt" height="240.000000pt" viewBox="0 0 240.000000 240.000000"
 preserveAspectRatio="xMidYMid meet">
<metadata>
Created by potrace 1.11, written by Peter Selinger 2001-2013
</metadata>
<g transform="translate(0.000000,240.000000) scale(0.100000,-0.100000)"
fill="#000000" stroke="none">
<path d="M1139 2200 c-133 -99 -238 -293 -239 -437 0 -38 -3 -39 -56 -14 -137
66 -322 67 -483 3 l-64 -25 6 -68 c7 -86 45 -196 93 -268 39 -59 120 -142 166
-169 35 -20 35 -24 -1 -45 -40 -24 -122 -106 -158 -158 -56 -83 -90 -176 -99
-278 l-7 -68 64 -25 c170 -68 331 -63 522 17 14 6 17 2 17 -26 1 -87 56 -237
118 -319 38 -50 97 -106 143 -137 l39 -26 42 28 c134 89 238 262 255 426 5 50
9 59 22 53 190 -80 366 -84 529 -12 50 22 52 24 52 63 -1 152 -101 343 -230
437 -32 24 -59 45 -59 48 -1 3 14 14 31 25 48 28 132 118 172 183 45 74 76
169 83 252 l6 67 -64 25 c-170 68 -325 63 -520 -16 -13 -6 -17 3 -22 53 -13
119 -70 245 -154 337 -39 43 -128 114 -143 114 -4 0 -32 -18 -61 -40z m-94
-603 c50 -55 114 -169 130 -232 14 -52 15 -59 17 -87 2 -40 13 -34 16 8 6 87
72 227 145 309 44 49 125 115 142 115 3 0 3 -23 0 -52 -19 -151 -71 -256 -180
-364 l-71 -71 70 25 c129 45 301 36 427 -21 l52 -25 -24 -15 c-100 -64 -310
-82 -447 -38 -40 13 -75 28 -78 32 -3 5 -10 9 -15 9 -6 0 11 -17 38 -39 96
-76 159 -164 198 -279 25 -70 40 -182 25 -182 -15 0 -105 76 -144 121 -75 88
-130 213 -138 311 -3 35 -13 28 -16 -10 -4 -48 -39 -150 -73 -208 -52 -92
-195 -231 -216 -210 -4 3 1 45 10 92 24 124 75 222 162 309 38 39 79 75 90 82
11 7 -2 3 -28 -8 -152 -65 -365 -58 -506 16 l-24 12 24 16 c90 58 285 81 409
47 36 -9 83 -24 105 -33 37 -15 38 -15 15 0 -49 32 -146 139 -177 193 -42 74
-72 165 -77 239 l-5 61 46 -32 c25 -18 69 -59 98 -91z"/>
<path d="M1190 1200 c0 -5 5 -10 10 -10 6 0 10 5 10 10 0 6 -4 10 -10 10 -5 0
-10 -4 -10 -10z"/>
</g>
</svg>
